<svg width="433" height="256" viewBox="0 0 433 256" fill="none" xmlns="http://www.w3.org/2000/svg">
<path d="M212.226 7.41104L223.625 106.108L298.909 14.7819L238.264 109.258L371.329 41.6488L249.126 115.568L416.964 83.3661L254.334 123.948L427.923 132.721L252.985 132.948L402.312 181.178L245.315 141.012L344.558 220.361L232.648 146.745L264.648 243.493L217.176 149.157L176.4 246.574L201.573 147.83L95.0713 229.073L188.538 142.994L34.7251 194.015L180.323 135.485L5.79588 147.462L178.351 126.601L13.2856 97.4628L182.961 117.879L55.8993 52.6638L193.356 110.826L126.269 20.8106L207.74 106.662L212.226 7.41104Z" fill="#D9D9D9" fill-opacity="0.6"/>
</svg>
