<svg width="213" height="186" viewBox="0 0 213 186" fill="none" xmlns="http://www.w3.org/2000/svg">
<path d="M104.436 5.40432L110.045 77.3751L147.092 10.7793L117.249 79.6723L182.73 30.3709L122.594 84.274L205.186 60.7917L125.157 90.3845L210.579 96.7816L124.493 96.9472L197.976 132.118L120.719 102.827L169.556 160.69L114.485 107.008L130.233 177.558L106.872 108.767L86.8057 179.805L99.1934 107.8L46.7842 167.043L92.7787 104.273L17.0881 141.478L88.7364 98.7976L2.85214 107.531L87.7657 92.3194L6.53781 71.0712L90.0343 85.9589L27.5079 38.4032L95.15 80.8159L62.1364 15.1755L102.228 77.7796L104.436 5.40432Z" fill="#D9D9D9" fill-opacity="0.6"/>
</svg>
