<svg width="762" height="763" viewBox="0 0 762 763" fill="none" xmlns="http://www.w3.org/2000/svg">
<circle cx="375" cy="388" r="373" stroke="#D9D9D9" stroke-width="4"/>
<circle cx="374.5" cy="12.5" r="12.5" fill="#0D7777"/>
<path d="M374 86.4902C539.133 86.4902 673 220.357 673 385.49C673 550.623 539.133 684.49 374 684.49C208.867 684.49 75 550.623 75 385.49C75 220.357 208.867 86.4902 374 86.4902Z" stroke="#D9D9D9" stroke-width="52"/>
<path d="M626 385C626 523.071 514.071 635 376 635C237.929 635 126 523.071 126 385C126 246.929 237.929 135 376 135C514.071 135 626 246.929 626 385Z" fill="#D9D9D9"/>
<circle cx="749.5" cy="387.5" r="12.5" fill="#0D7777"/>
</svg>
