<svg width="291" height="98" viewBox="0 0 291 98" fill="none" xmlns="http://www.w3.org/2000/svg">
<g clip-path="url(#clip0_1_10)">
<rect width="98" height="98" rx="49" fill="#0D7777"/>
<path d="M34.336 70.14C33.3973 70.14 32.5867 69.9053 31.904 69.436C31.264 68.924 30.944 67.7507 30.944 65.916C30.944 64.9773 31.0293 63.8467 31.2 62.524C31.4133 61.1587 31.6267 59.7507 31.84 58.3C32.1813 56.252 32.5227 54.012 32.864 51.58C33.2053 49.1053 33.376 46.652 33.376 44.22C33.376 41.66 33.2907 39.6973 33.12 38.332C32.9493 36.9667 32.7573 35.8573 32.544 35.004C32.4587 34.5347 32.3733 34.108 32.288 33.724C32.2453 33.34 32.224 32.9133 32.224 32.444C32.224 31.0787 32.6507 30.0547 33.504 29.372C34.4 28.6467 35.3813 28.284 36.448 28.284C37.5147 28.284 38.4107 28.5613 39.136 29.116C39.8613 29.628 40.5013 30.1827 41.056 30.78C44.7253 34.9187 48.032 39.2707 50.976 43.836C53.92 48.3587 56.3733 53.0093 58.336 57.788C58.5493 58.1293 58.7413 58.3 58.912 58.3C59.168 58.3 59.3387 58.1293 59.424 57.788C60.192 52.796 60.576 48.2733 60.576 44.22C60.576 41.788 60.4693 39.868 60.256 38.46C60.0853 37.0093 59.8507 35.9 59.552 35.132C59.296 34.3213 59.04 33.6813 58.784 33.212C58.656 32.9133 58.5493 32.6573 58.464 32.444C58.3787 32.188 58.336 31.9533 58.336 31.74C58.336 31.228 58.592 30.716 59.104 30.204C59.6587 29.6493 60.32 29.2013 61.088 28.86C61.856 28.5187 62.6027 28.348 63.328 28.348C64.352 28.348 65.0987 28.6893 65.568 29.372C66.0373 30.0547 66.336 30.908 66.464 31.932C66.6347 32.9133 66.72 33.916 66.72 34.94C66.72 36.092 66.6133 37.5853 66.4 39.42C66.1867 41.2547 65.9307 43.2387 65.632 45.372C65.376 47.4627 65.1413 49.532 64.928 51.58C64.7573 53.628 64.672 55.4413 64.672 57.02C64.672 57.916 64.6933 58.7907 64.736 59.644C64.8213 60.4973 64.9067 61.3293 64.992 62.14C65.12 63.2067 65.184 64.1453 65.184 64.956C65.184 66.5347 64.7787 67.7933 63.968 68.732C63.2 69.628 62.1333 70.076 60.768 70.076C59.8293 70.076 58.8907 69.7987 57.952 69.244C57.056 68.6893 56.3733 67.7933 55.904 66.556C54.0693 61.8627 51.808 57.2973 49.12 52.86C46.4747 48.38 43.7013 44.5187 40.8 41.276C40.3307 40.8493 39.9467 40.636 39.648 40.636C39.2213 40.636 38.944 41.1053 38.816 42.044C38.6027 43.6653 38.3893 45.436 38.176 47.356C37.9627 49.276 37.792 51.1533 37.664 52.988C37.536 54.78 37.472 56.316 37.472 57.596C37.472 59.0467 37.6 60.3053 37.856 61.372C38.112 62.396 38.496 63.3987 39.008 64.38C39.4773 65.2333 39.712 66.0013 39.712 66.684C39.712 67.4947 39.2427 68.284 38.304 69.052C37.3653 69.7773 36.0427 70.14 34.336 70.14Z" fill="white"/>
<path d="M117.032 67V33.832H124.184L136.664 63.592H137.624V33.832H141.464V67H134.456L121.784 37.24H120.872V67H117.032ZM146.588 67L155.66 33.832H163.964L172.988 67H169.148L166.796 58.6H152.78L150.428 67H146.588ZM153.596 55.192H165.98L161.036 37.096H158.54L153.596 55.192ZM178.11 67V33.832H189.966C192.398 33.832 194.414 34.232 196.014 35.032C197.614 35.8 198.878 36.904 199.806 38.344C200.734 39.752 201.39 41.448 201.774 43.432C202.158 45.384 202.35 47.544 202.35 49.912C202.35 52.312 202.158 54.552 201.774 56.632C201.422 58.68 200.782 60.488 199.854 62.056C198.926 63.624 197.662 64.84 196.062 65.704C194.462 66.568 192.43 67 189.966 67H178.11ZM181.95 63.592H189.966C191.694 63.592 193.102 63.224 194.19 62.488C195.278 61.752 196.126 60.744 196.734 59.464C197.342 58.184 197.758 56.728 197.982 55.096C198.238 53.464 198.366 51.736 198.366 49.912C198.366 48.12 198.238 46.456 197.982 44.92C197.758 43.384 197.342 42.04 196.734 40.888C196.126 39.736 195.278 38.84 194.19 38.2C193.102 37.56 191.694 37.24 189.966 37.24H181.95V63.592ZM209.001 67V33.832H229.305V37.24H212.841V48.472H226.425V51.832H212.841V63.592H229.305V67H209.001ZM235.532 67V33.832H255.836V37.24H239.372V48.472H252.956V51.832H239.372V63.592H255.836V67H235.532ZM262.063 67V33.832H269.215L281.695 63.592H282.655V33.832H286.495V67H279.487L266.815 37.24H265.903V67H262.063Z" fill="black"/>
</g>
<defs>
<clipPath id="clip0_1_10">
<rect width="291" height="98" fill="white"/>
</clipPath>
</defs>
</svg>
